HIERARCHY
ROOT Hips
{
 OFFSET 0.000000 0.000000 0.000000
 CHANNELS 6 Xposition Yposition Zposition Yrotation Xrotation Zrotation
 JOINT Chest
 {
  OFFSET 0.000000 9.585900 0.002600
  CHANNELS 3 Yrotation Xrotation Zrotation
  JOINT Chest2
  {
   OFFSET 0.000000 9.601200 -0.005300
   CHANNELS 3 Yrotation Xrotation Zrotation
   JOINT Chest3
   {
    OFFSET 0.000000 9.561800 0.000000
    CHANNELS 3 Yrotation Xrotation Zrotation
    JOINT Chest4
    {
     OFFSET 0.000000 9.552100 0.000000
     CHANNELS 3 Yrotation Xrotation Zrotation
     JOINT Neck
     {
      OFFSET 0.000000 14.453000 0.000000
      CHANNELS 3 Yrotation Xrotation Zrotation
      JOINT Head
      {
       OFFSET 0.000000 8.936500 -0.011300
       CHANNELS 3 Yrotation Xrotation Zrotation
       End Site
       {
        OFFSET 0.000000 17.073600 -0.006000
       }
      }
     }
     JOINT RightCollar
     {
      OFFSET -2.921100 9.558500 0.000000
      CHANNELS 3 Yrotation Xrotation Zrotation
      JOINT RightShoulder
      {
       OFFSET -13.519700 0.000000 0.000000
       CHANNELS 3 Yrotation Xrotation Zrotation
       JOINT RightElbow
       {
        OFFSET 0.000000 -29.696600 0.000000
        CHANNELS 3 Yrotation Xrotation Zrotation
        JOINT RightWrist
        {
         OFFSET 0.000000 -24.004700 0.000000
         CHANNELS 3 Yrotation Xrotation Zrotation
         End Site
         {
          OFFSET 0.000000 -17.728500 0.000000
         }
        }
       }
      }
     }
     JOINT LeftCollar
     {
      OFFSET 2.921100 9.558500 0.000000
      CHANNELS 3 Yrotation Xrotation Zrotation
      JOINT LeftShoulder
      {
       OFFSET 13.519700 0.000000 0.000000
       CHANNELS 3 Yrotation Xrotation Zrotation
       JOINT LeftElbow
       {
        OFFSET 0.000000 -29.696600 0.000000
        CHANNELS 3 Yrotation Xrotation Zrotation
        JOINT LeftWrist
        {
         OFFSET 0.000000 -24.004700 0.000000
         CHANNELS 3 Yrotation Xrotation Zrotation
         End Site
         {
          OFFSET 0.000000 -17.728500 0.000000
         }
        }
       }
      }
     }
    }
   }
  }
 }
 JOINT RightHip
 {
  OFFSET -7.771700 -0.012900 -0.001300
  CHANNELS 3 Yrotation Xrotation Zrotation
  JOINT RightKnee
  {
   OFFSET 0.000000 -40.869800 0.001200
   CHANNELS 3 Yrotation Xrotation Zrotation
   JOINT RightAnkle
   {
    OFFSET 0.000000 -39.717900 0.002100
    CHANNELS 3 Yrotation Xrotation Zrotation
    JOINT RightToe
    {
     OFFSET 0.000000 -4.965400 11.033500
     CHANNELS 3 Yrotation Xrotation Zrotation
     End Site
     {
      OFFSET 0.000000 -1.423100 5.872300
     }
    }
   }
  }
 }
 JOINT LeftHip
 {
  OFFSET 7.771700 -0.012900 -0.001300
  CHANNELS 3 Yrotation Xrotation Zrotation
  JOINT LeftKnee
  {
   OFFSET 0.000000 -40.869800 0.001200
   CHANNELS 3 Yrotation Xrotation Zrotation
   JOINT LeftAnkle
   {
    OFFSET 0.000000 -39.717900 0.002100
    CHANNELS 3 Yrotation Xrotation Zrotation
    JOINT LeftToe
    {
     OFFSET 0.000000 -4.965400 11.033500
     CHANNELS 3 Yrotation Xrotation Zrotation
     End Site
     {
      OFFSET 0.000000 -1.423100 5.872300
     }
    }
   }
  }
 }
}
MOTION
Frames: 13
Frame Time: 0.008333
-154.678499 49.333325 18.435103 175.541235 -31.500657 -3.079668 -0.020355 19.780052 3.395541 -0.051160 2.449790 0.356691 -0.080324 4.021002 0.582263 -0.048717 17.039910 2.499592 5.423853 16.081855 -1.452275 10.592070 -5.612883 -4.613686 -1.013885 -3.746058 -3.341486 5.649427 -8.604539 -12.251401 -40.225489 -44.842467 91.116362 3.082880 1.916396 -8.279709 -1.059416 -3.706149 2.395331 -6.315467 -2.730508 11.492263 74.017734 -66.781437 -112.443568 4.201715 7.910032 5.698099 -7.674388 -52.737052 -6.249439 -147.784706 82.238092 -134.245318 -30.334871 -3.973360 -4.878918 -0.003197 -13.592903 -0.473194 -11.530761 -55.138135 18.252916 -73.735425 64.999876 -78.884724 30.793624 6.682189 16.833066 0.042063 -0.533592 0.035586
-154.678970 49.333052 18.434538 175.548622 -31.502745 -3.089519 -0.030930 19.779018 3.393717 -0.051981 2.449942 0.356670 -0.077470 4.023041 0.585159 -0.059744 17.039316 2.501575 5.431075 16.089055 -1.454553 10.605634 -5.598680 -4.619691 -0.993991 -3.742665 -3.355063 5.635700 -8.606709 -12.249369 -40.245315 -44.851539 91.148904 3.072225 1.927742 -8.285660 -1.038346 -3.710861 2.387479 -6.318408 -2.741998 11.502598 74.051599 -66.800692 -112.482057 4.221048 7.926852 5.669997 -7.689744 -52.735944 -6.246137 -147.835136 82.238057 -134.293061 -30.329653 -3.969447 -4.881419 -0.008095 -13.599835 -0.474028 -11.537347 -55.138770 18.264777 -73.749048 64.992948 -78.896181 30.789317 6.684717 16.828077 0.048300 -0.535625 0.038764
-154.680401 49.332831 18.433701 175.558396 -31.504075 -3.094219 -0.045867 19.779692 3.387400 -0.053232 2.449774 0.357191 -0.085188 4.022542 0.583643 -0.057236 17.040592 2.505420 5.436768 16.094810 -1.456628 10.614686 -5.593775 -4.624928 -0.975009 -3.736909 -3.367114 5.627457 -8.611844 -12.250776 -40.255076 -44.850646 91.165466 3.076659 1.922951 -8.293224 -1.024826 -3.719182 2.379720 -6.315708 -2.760371 11.513398 74.005635 -66.791587 -112.440748 4.211117 7.936940 5.643308 -7.699684 -52.734900 -6.246985 -147.869869 82.240055 -134.330064 -30.329918 -3.970836 -4.878939 -0.010810 -13.599106 -0.475200 -11.543838 -55.138053 18.266317 -73.743457 64.996362 -78.895359 30.791556 6.684377 16.833352 0.043917 -0.537501 0.036117
-154.682101 49.332889 18.432559 175.574158 -31.506024 -3.100587 -0.067460 19.783043 3.375914 -0.054921 2.449727 0.357880 -0.078499 4.022482 0.588278 -0.067039 17.040414 2.504928 5.443834 16.098406 -1.458256 10.621203 -5.588699 -4.627279 -0.955635 -3.730566 -3.377837 5.619356 -8.618750 -12.250224 -40.255143 -44.850958 91.169467 3.072110 1.913388 -8.288962 -1.011921 -3.730697 2.372579 -6.319830 -2.756873 11.517841 74.001144 -66.795794 -112.435399 4.209066 7.945606 5.630238 -7.729381 -52.736257 -6.245248 -147.975202 82.244112 -134.445435 -30.323076 -3.962058 -4.872246 -0.019130 -13.611240 -0.483528 -11.552181 -55.136147 18.270330 -73.735890 64.991377 -78.896816 30.791777 6.684048 16.842036 0.045771 -0.537181 0.030910
-154.682552 49.333093 18.431736 175.577374 -31.507088 -3.108931 -0.072965 19.783806 3.378481 -0.055491 2.449759 0.357986 -0.075529 4.023738 0.589078 -0.074072 17.040039 2.504852 5.447306 16.100322 -1.459610 10.630341 -5.579206 -4.629991 -0.942352 -3.724725 -3.387836 5.615014 -8.625238 -12.244788 -40.248560 -44.837557 91.159803 3.080308 1.897488 -8.293561 -0.997768 -3.744177 2.364197 -6.347151 -2.772641 11.523764 73.957649 -66.798605 -112.373053 4.220328 7.949163 5.630874 -7.754543 -52.738624 -6.228263 -148.178756 82.264830 -134.660157 -30.329743 -3.942572 -4.864225 -0.032407 -13.627705 -0.492754 -11.561651 -55.134808 18.285407 -73.741430 64.987231 -78.902755 30.788367 6.684978 16.840661 0.049563 -0.537375 0.031903
-154.682674 49.333422 18.431163 175.577918 -31.507468 -3.119369 -0.073473 19.783043 3.385708 -0.055832 2.449839 0.358034 -0.080893 4.024513 0.588848 -0.067740 17.040735 2.506288 5.445063 16.100919 -1.461432 10.641797 -5.570646 -4.637502 -0.938762 -3.722189 -3.392529 5.617194 -8.627720 -12.255069 -40.248776 -44.810021 91.152869 3.082324 1.889093 -8.285912 -0.995455 -3.753237 2.357005 -6.353432 -2.768638 11.528685 73.961678 -66.801646 -112.378455 4.220172 7.965574 5.625532 -7.776993 -52.738091 -6.206472 -148.251425 82.273160 -134.740118 -30.320589 -3.934913 -4.862876 -0.011526 -13.632577 -0.503196 -11.581225 -55.132164 18.314563 -73.745002 64.981243 -78.910644 30.780518 6.685614 16.836150 0.057551 -0.536071 0.035051
-154.682982 49.334224 18.430158 175.570852 -31.512446 -3.126253 -0.067538 19.786523 3.392181 -0.053119 2.450792 0.360220 -0.082275 4.022294 0.588977 -0.069969 17.040205 2.507066 5.445718 16.103909 -1.466658 10.646939 -5.570277 -4.637228 -0.935192 -3.717213 -3.397990 5.630379 -8.627081 -12.264725 -40.261884 -44.790855 91.150854 3.071484 1.894091 -8.278081 -0.986707 -3.753478 2.348249 -6.364603 -2.767927 11.533792 73.956499 -66.801320 -112.367890 4.219231 7.978028 5.603322 -7.790723 -52.732163 -6.186265 -148.420182 82.296531 -134.913821 -30.329376 -3.929008 -4.863900 -0.014246 -13.635322 -0.506692 -11.594944 -55.125169 18.336947 -73.755039 64.984810 -78.922368 30.774559 6.680215 16.830286 0.062339 -0.531827 0.033437
-154.684094 49.335055 18.429256 175.561732 -31.517927 -3.129180 -0.059673 19.790859 3.397147 -0.051709 2.451955 0.360793 -0.084043 4.023239 0.587006 -0.070755 17.041603 2.505158 5.447274 16.099564 -1.469354 10.651486 -5.571041 -4.634915 -0.927983 -3.714893 -3.398927 5.631797 -8.630452 -12.263414 -40.265488 -44.786060 91.149378 3.038985 1.903436 -8.280912 -0.970668 -3.759038 2.333117 -6.389577 -2.767707 11.537929 73.949637 -66.805826 -112.348963 4.213759 7.984742 5.602883 -7.796591 -52.725566 -6.173321 -148.506274 82.311472 -135.003075 -30.331701 -3.925029 -4.863688 -0.012247 -13.636006 -0.511694 -11.600922 -55.118448 18.351614 -73.764832 64.984614 -78.934709 30.776530 6.674206 16.829450 0.061701 -0.530138 0.032362
-154.686653 49.335115 18.429525 175.563493 -31.515282 -3.131482 -0.065384 19.786753 3.394187 -0.055687 2.450979 0.357717 -0.083404 4.024670 0.586586 -0.068509 17.044158 2.503503 5.453995 16.097195 -1.467814 10.647111 -5.586590 -4.645182 -0.920625 -3.718056 -3.404103 5.635882 -8.627036 -12.255416 -40.254061 -44.772367 91.127626 3.042176 1.894087 -8.271304 -0.961111 -3.758986 2.331471 -6.394134 -2.768828 11.542541 73.991091 -66.799607 -112.385556 4.216380 7.999284 5.599559 -7.804411 -52.727006 -6.170336 -148.555346 82.320370 -135.054376 -30.331783 -3.926399 -4.863075 -0.005918 -13.632784 -0.516611 -11.606769 -55.119947 18.355924 -73.755829 64.977443 -78.928839 30.788372 6.676885 16.836547 0.055144 -0.531133 0.028199
-154.688548 49.335715 18.429029 175.565311 -31.519645 -3.138921 -0.063634 19.791743 3.391674 -0.054908 2.450981 0.357805 -0.082133 4.024674 0.586621 -0.063071 17.044095 2.504159 5.452767 16.094341 -1.461304 10.643240 -5.592349 -4.647323 -0.925235 -3.723551 -3.401091 5.644483 -8.617831 -12.252052 -40.247499 -44.775602 91.108715 3.023512 1.883149 -8.274800 -0.964972 -3.756373 2.332332 -6.396174 -2.774521 11.545648 74.002945 -66.803574 -112.395918 4.214204 7.983415 5.580078 -7.817391 -52.719630 -6.160722 -148.633851 82.330211 -135.135808 -30.329928 -3.930907 -4.857973 -0.010887 -13.628338 -0.522160 -11.616177 -55.113921 18.365504 -73.757855 64.974789 -78.929025 30.786172 6.675047 16.835359 0.055448 -0.527967 0.025421
-154.690506 49.335712 18.429359 175.564782 -31.518700 -3.146111 -0.054854 19.794971 3.379160 -0.060387 2.449829 0.368373 -0.080304 4.025589 0.586244 -0.055139 17.046088 2.503618 5.450284 16.088113 -1.460610 10.643452 -5.598213 -4.637708 -0.931528 -3.735479 -3.396488 5.654060 -8.609123 -12.244389 -40.252697 -44.783588 91.101534 3.020016 1.876546 -8.283528 -0.968436 -3.757261 2.333418 -6.399592 -2.779297 11.549554 74.031446 -66.809538 -112.420541 4.207642 7.971733 5.563371 -7.830562 -52.716698 -6.151091 -148.732745 82.344548 -135.236297 -30.321913 -3.937461 -4.855509 -0.024060 -13.620813 -0.527060 -11.625147 -55.116871 18.373350 -73.765967 64.978193 -78.932695 30.788007 6.677077 16.837431 0.054818 -0.529373 0.020520
-154.692891 49.335391 18.429835 175.568065 -31.515776 -3.153099 -0.051274 19.792864 3.381114 -0.058219 2.450781 0.362199 -0.078236 4.025992 0.585954 -0.046125 17.046993 2.502860 5.445064 16.080421 -1.470934 10.630235 -5.614042 -4.617114 -0.949410 -3.745377 -3.388632 5.656751 -8.602409 -12.243390 -40.257745 -44.784628 91.108952 3.023706 1.867863 -8.293265 -0.979742 -3.757483 2.339580 -6.388849 -2.779923 11.536739 74.057700 -66.827022 -112.456530 4.200536 7.961122 5.543171 -7.842833 -52.715743 -6.146295 -148.775739 82.355926 -135.278039 -30.322769 -3.942185 -4.859609 -0.018863 -13.614727 -0.528535 -11.629976 -55.127422 18.371613 -73.783206 64.987441 -78.941604 30.791213 6.687022 16.840535 0.049755 -0.539112 0.015902
-154.694937 49.335119 18.429863 175.574154 -31.514845 -3.162856 -0.047798 19.792842 3.385336 -0.044969 2.456456 0.351280 -0.073801 4.027976 0.582210 -0.035462 17.049130 2.497451 5.431105 16.064824 -1.449776 10.618718 -5.630460 -4.613399 -0.979053 -3.760254 -3.356876 5.653739 -8.601296 -12.246565 -40.258228 -44.780464 91.117776 3.030857 1.859696 -8.297653 -1.003937 -3.766403 2.364925 -6.381468 -2.780824 11.533261 74.067890 -66.837442 -112.475290 4.191884 7.939216 5.519746 -7.857186 -52.713463 -6.139512 -148.778761 82.360035 -135.277758 -30.325149 -3.946318 -4.865049 -0.011327 -13.611293 -0.527711 -11.643761 -55.130547 18.379599 -73.790157 64.991054 -78.945585 30.790763 6.688081 16.840965 0.050911 -0.539136 0.015048
